<?xml version="1.0" encoding="iso-8859-1"?>
<!-- Generator: Adobe Illustrator 19.0.0, SVG Export Plug-In . SVG Version: 6.00 Build 0)  -->
<svg version="1.1" id="Capa_1" xmlns="http://www.w3.org/2000/svg" xmlns:xlink="http://www.w3.org/1999/xlink" x="0px" y="0px"
	 viewBox="0 0 512 512" style="enable-background:new 0 0 512 512;" xml:space="preserve">
<path style="fill:#F0E6DE;" d="M347.83,98.7c26.71,15.96,49.26,38.51,65.22,65.22c16.27,27.23,25.7,58.79,25.7,92.08
	s-9.43,64.85-25.7,92.08c-15.96,26.71-38.51,49.26-65.22,65.22c-27.23,16.27-58.79,25.7-92.08,25.7c-33.3,0-64.85-9.43-92.08-25.7
	c-26.71-15.96-49.26-38.51-65.22-65.22c-16.27-27.23-25.7-58.79-25.7-92.08s9.43-64.85,25.7-92.08
	c15.96-26.71,38.51-49.26,65.22-65.22C190.9,82.43,222.46,73,255.75,73S320.6,82.43,347.83,98.7z"/>
<g>
	<path style="fill:#FEDB51;" d="M355.75,236c11.05,0,20,8.95,20,20c0,11.05-8.95,20-20,20s-20-8.95-20-20
		C335.75,244.95,344.7,236,355.75,236z"/>
	<path style="fill:#FEDB51;" d="M255.75,136c11.05,0,20,8.95,20,20s-8.95,20-20,20c-11.05,0-20-8.95-20-20S244.7,136,255.75,136z"/>
	<path style="fill:#FEDB51;" d="M155.75,236c11.05,0,20,8.95,20,20c0,11.05-8.95,20-20,20s-20-8.95-20-20
		C135.75,244.95,144.7,236,155.75,236z"/>
	<path style="fill:#FEDB51;" d="M255.75,336c11.05,0,20,8.95,20,20s-8.95,20-20,20c-11.05,0-20-8.95-20-20S244.7,336,255.75,336z"/>
	<circle style="fill:#FEDB51;" cx="255.75" cy="256" r="40"/>
</g>
<g>
	<path style="fill:#57555C;" d="M501.75,256h-63c0-33.29-9.43-64.85-25.7-92.08l53.58-30.94l0.45-0.26
		C489.01,169.3,501.75,211.58,501.75,256z"/>
	<path style="fill:#57555C;" d="M466.63,379.02l0.45,0.26c-21.58,35.99-52.06,66.47-88.05,88.05l-0.26-0.45l-30.94-53.58
		c26.71-15.96,49.26-38.51,65.22-65.22l0.49,0.29L466.63,379.02z"/>
	<path style="fill:#57555C;" d="M163.67,413.3c27.23,16.27,58.78,25.7,92.08,25.7v63c-44.42,0-86.7-12.74-123.28-34.67l0.26-0.45
		L163.67,413.3z"/>
	<path style="fill:#57555C;" d="M98.45,348.08l-53.58,30.94l-0.45,0.26C22.49,342.7,9.75,300.42,9.75,256h63
		C72.75,289.29,82.18,320.85,98.45,348.08z"/>
	<path style="fill:#57555C;" d="M132.73,45.12l30.94,53.58c-26.71,15.96-49.26,38.51-65.22,65.22l-53.58-30.94l-0.45-0.26
		C66,96.73,96.48,66.25,132.47,44.67L132.73,45.12z"/>
	<path style="fill:#57555C;" d="M379.03,44.67l-0.26,0.45L347.83,98.7C320.6,82.43,289.04,73,255.75,73V10
		C300.17,10,342.45,22.74,379.03,44.67z"/>
</g>
<g>
	<path style="fill:#FD6244;" d="M467.08,132.72l-0.45,0.26l-53.58,30.94c-15.96-26.71-38.51-49.26-65.22-65.22l30.94-53.58
		l0.26-0.45C415.02,66.25,445.5,96.73,467.08,132.72z"/>
	<path style="fill:#FD6244;" d="M438.75,256h63c0,44.42-12.74,86.7-34.67,123.28l-0.45-0.26l-53.09-30.65l-0.49-0.29
		C429.32,320.85,438.75,289.29,438.75,256z"/>
	<path style="fill:#FD6244;" d="M378.77,466.88l0.26,0.45C342.45,489.26,300.17,502,255.75,502v-63c33.29,0,64.85-9.43,92.08-25.7
		L378.77,466.88z"/>
	<path style="fill:#FD6244;" d="M163.67,413.3l-30.94,53.58l-0.26,0.45C96.48,445.75,66,415.27,44.42,379.28l0.45-0.26l53.58-30.94
		C114.41,374.79,136.96,397.34,163.67,413.3z"/>
	<path style="fill:#FD6244;" d="M44.87,132.98l53.58,30.94c-16.27,27.23-25.7,58.79-25.7,92.08h-63c0-44.42,12.74-86.7,34.67-123.28
		L44.87,132.98z"/>
	<path style="fill:#FD6244;" d="M255.75,10v63c-33.29,0-64.85,9.43-92.08,25.7l-30.94-53.58l-0.26-0.45
		C169.05,22.74,211.33,10,255.75,10z"/>
</g>
<path d="M326,146c5.52,0,10-4.48,10-10s-4.48-10-10-10s-10,4.48-10,10S320.48,146,326,146z"/>
<path d="M256,0C117.577,0,0,118.261,0,256c0,138.227,118.062,256,256,256c91.709,0,174.606-52.029,219.907-127.578
	C499.519,345.035,512,300.628,512,256C512,117.629,393.793,0,256,0z M463.63,365.597l-36.794-21.242
	c12.928-24.446,20.39-51.287,21.866-78.455h43.063C490.199,300.339,480.574,334.511,463.63,365.597z M167.649,426.838
	c24.444,12.926,51.183,20.388,78.351,21.863v43.063c-34.439-1.566-68.512-11.19-99.596-28.134L167.649,426.838z M266,448.702
	c27.167-1.475,53.907-8.937,78.351-21.863l21.245,36.792C334.511,480.576,300.439,490.2,266,491.766V448.702z M256,429
	c-93.779,0-173-79.322-173-173c0-94.073,79.671-173,173-173c94.153,0,173,79.854,173,173C429,349.768,349.691,429,256,429z
	 M48.369,365.596C31.425,334.51,21.801,300.438,20.235,266h43.063c1.475,27.167,8.937,53.906,21.863,78.35L48.369,365.596z
	 M48.369,146.404l36.792,21.245C72.235,192.094,64.774,218.833,63.298,246H20.235C21.801,211.562,31.426,177.49,48.369,146.404z
	 M344.351,85.162C319.907,72.235,293.168,64.774,266,63.298V20.235c34.439,1.566,68.512,11.19,99.596,28.134L344.351,85.162z
	 M246,63.298c-27.168,1.475-53.907,8.937-78.351,21.863L146.404,48.37C177.489,31.425,211.561,21.801,246,20.235V63.298z
	 M448.702,246c-1.475-27.167-8.937-53.906-21.863-78.35l36.792-21.245c16.944,31.086,26.568,65.158,28.134,99.596h-43.063V246z
	 M453.319,129.263l-36.722,21.205c-14.524-21.754-33.312-40.542-55.065-55.065l21.205-36.722
	C410.757,77.114,434.887,101.243,453.319,129.263z M129.263,58.681l21.205,36.722c-21.753,14.523-40.541,33.312-55.065,55.065
	l-36.722-21.205C77.114,101.243,101.244,77.113,129.263,58.681z M58.681,382.737l36.723-21.205
	c14.524,21.754,33.312,40.542,55.065,55.065l-21.205,36.722C101.243,434.886,77.113,410.757,58.681,382.737z M382.737,453.319
	l-21.205-36.722c21.752-14.522,40.539-33.309,55.063-55.061l36.725,21.202C434.886,410.758,410.756,434.887,382.737,453.319z"/>
<path d="M380.599,218.863c1.579,5.281,7.14,8.302,12.445,6.718c5.292-1.581,8.299-7.152,6.718-12.444
	c-6.635-22.203-18.589-42.913-34.57-59.892c-3.785-4.021-10.114-4.214-14.136-0.427c-4.021,3.785-4.213,10.113-0.428,14.136
	C364.487,181.677,374.851,199.627,380.599,218.863z"/>
<path d="M356,226c-13.036,0-24.152,8.361-28.28,20h-22.726c-3.987-19.563-19.431-35.007-38.994-38.994V184.28
	c11.639-4.128,20-15.243,20-28.28c0-16.542-13.458-30-30-30s-30,13.458-30,30c0,13.036,8.361,24.152,20,28.28v22.726
	c-19.563,3.987-35.007,19.431-38.994,38.994H184.28c-4.128-11.639-15.243-20-28.28-20c-16.542,0-30,13.458-30,30s13.458,30,30,30
	c13.036,0,24.152-8.361,28.28-20h22.726c3.987,19.563,19.431,35.007,38.994,38.994v22.726c-11.639,4.128-20,15.243-20,28.28
	c0,16.542,13.458,30,30,30s30-13.458,30-30c0-13.036-8.361-24.152-20-28.28v-22.726c19.563-3.987,35.007-19.431,38.994-38.994
	h22.726c4.128,11.639,15.243,20,28.28,20c16.542,0,30-13.458,30-30S372.542,226,356,226z M256,146c5.514,0,10,4.486,10,10
	s-4.486,10-10,10s-10-4.486-10-10S250.486,146,256,146z M156,266c-5.514,0-10-4.486-10-10s4.486-10,10-10s10,4.486,10,10
	S161.514,266,156,266z M256,366c-5.514,0-10-4.486-10-10s4.486-10,10-10s10,4.486,10,10S261.514,366,256,366z M256,286
	c-16.542,0-30-13.458-30-30s13.458-30,30-30s30,13.458,30,30S272.542,286,256,286z M356,266c-5.514,0-10-4.486-10-10s4.486-10,10-10
	s10,4.486,10,10S361.514,266,356,266z"/>
<g>
</g>
<g>
</g>
<g>
</g>
<g>
</g>
<g>
</g>
<g>
</g>
<g>
</g>
<g>
</g>
<g>
</g>
<g>
</g>
<g>
</g>
<g>
</g>
<g>
</g>
<g>
</g>
<g>
</g>
</svg>
